<svg width="12" height="12" viewBox="0 0 12 12" fill="none" xmlns="http://www.w3.org/2000/svg">
<path d="M9.6 9.6C9.91826 9.6 10.2235 9.72643 10.4485 9.95147C10.6736 10.1765 10.8 10.4817 10.8 10.8C10.8 11.1183 10.6736 11.4235 10.4485 11.6485C10.2235 11.8736 9.91826 12 9.6 12C9.28174 12 8.97652 11.8736 8.75147 11.6485C8.52643 11.4235 8.4 11.1183 8.4 10.8C8.4 10.134 8.934 9.6 9.6 9.6ZM0 0H1.962L2.526 1.2H11.4C11.5591 1.2 11.7117 1.26321 11.8243 1.37574C11.9368 1.48826 12 1.64087 12 1.8C12 1.902 11.97 2.004 11.928 2.1L9.78 5.982C9.576 6.348 9.18 6.6 8.73 6.6H4.26L3.72 7.578L3.702 7.65C3.702 7.68978 3.7178 7.72794 3.74593 7.75607C3.77406 7.7842 3.81222 7.8 3.852 7.8H10.8V9H3.6C3.28174 9 2.97652 8.87357 2.75147 8.64853C2.52643 8.42348 2.4 8.11826 2.4 7.8C2.4 7.59 2.454 7.392 2.544 7.224L3.36 5.754L1.2 1.2H0V0ZM3.6 9.6C3.91826 9.6 4.22348 9.72643 4.44853 9.95147C4.67357 10.1765 4.8 10.4817 4.8 10.8C4.8 11.1183 4.67357 11.4235 4.44853 11.6485C4.22348 11.8736 3.91826 12 3.6 12C3.28174 12 2.97652 11.8736 2.75147 11.6485C2.52643 11.4235 2.4 11.1183 2.4 10.8C2.4 10.134 2.934 9.6 3.6 9.6ZM9 5.4L10.668 2.4H3.084L4.5 5.4H9Z" fill="white"/>
</svg>
